<svg width="43" height="32" viewBox="0 0 43 32" fill="none" xmlns="http://www.w3.org/2000/svg">
<path d="M35.9426 2.06265C35.4563 1.72245 34.6952 1.78624 34.2512 2.19023L31.4392 4.78425C30.9952 5.18823 31.0375 5.82611 31.5238 6.16631C31.5238 6.16631 35.8581 9.37694 35.8581 16.2447C35.8581 22.7723 31.2912 26.5145 31.2912 26.5145C30.8261 26.8972 30.8049 27.5351 31.2489 27.9391L34.0398 30.4906C34.4838 30.8945 35.2449 30.9583 35.7312 30.6181C35.7312 30.6181 42.2855 26.1318 42.2855 16.266C42.2855 6.46398 35.9426 2.06265 35.9426 2.06265Z" fill="#FF3D00"/>
<path d="M8.83771 18.4346C8.83771 18.4346 8.03429 18.3495 8.03429 19.0086C8.03429 22.7296 10.804 25.3874 15.1383 25.3874C18.3731 25.3874 19.7474 24.6219 21.6926 23.1548C22.1366 22.8146 22.6229 22.4957 23.0034 22.8997C23.2571 23.1761 26.6823 26.3442 26.6823 26.3442C27.1051 26.7482 26.9994 27.2372 26.5343 27.6199C26.0691 28.0027 20.9737 32 15.096 32C7.37886 32 0 28.6405 0 15.9681C0 5.76213 5.75086 0 14.1869 0C23.2571 0 28.3737 6.35748 28.3737 14.9475V17.1163C28.3737 18.0093 27.6549 18.4346 27.0629 18.4346H8.83771ZM19.6206 9.71694C18.7537 7.86711 16.9354 6.48505 14.1869 6.48505C11.4383 6.48505 9.62 7.86711 8.75314 9.71694C8.24572 10.8651 8.05543 11.6944 7.992 13.0764H20.3606C20.3183 11.7156 20.128 10.8651 19.6206 9.71694Z" fill="#FFFFFF"/>
</svg>
